<mxfile host="drawio-plugin" modified="2022-07-21T13:10:48.328Z" agent="5.0 (X11; Linux x86_64) AppleWebKit/537.36 (KHTML, like Gecko) Chrome/97.0.4692.45 Safari/537.36" etag="5QY06G5vvfDnbbwzVXo5" version="15.5.4" type="embed"><diagram id="C5RBs43oDa-KdzZeNtuy" name="Page-1"><mxGraphModel dx="2048" dy="1297" grid="1" gridSize="10" guides="1" tooltips="1" connect="1" arrows="1" fold="1" page="1" pageScale="1" pageWidth="827" pageHeight="1169" math="0" shadow="0"><root><mxCell id="WIyWlLk6GJQsqaUBKTNV-0"/><mxCell id="WIyWlLk6GJQsqaUBKTNV-1" parent="WIyWlLk6GJQsqaUBKTNV-0"/><mxCell id="Hpd59Qbbizcu43VCn_N1-1" value="BukkitMaterial" style="swimlane;fontStyle=1;align=center;verticalAlign=top;childLayout=stackLayout;horizontal=1;startSize=26;horizontalStack=0;resizeParent=1;resizeParentMax=0;resizeLast=0;collapsible=1;marginBottom=0;" parent="WIyWlLk6GJQsqaUBKTNV-1" vertex="1"><mxGeometry x="710" y="-310" width="230" height="100" as="geometry"><mxRectangle x="280" y="320" width="120" height="30" as="alternateBounds"/></mxGeometry></mxCell><mxCell id="Hpd59Qbbizcu43VCn_N1-2" value="+ material: org.bukkit.Material" style="text;align=left;verticalAlign=top;spacingLeft=4;spacingRight=4;overflow=hidden;rotatable=0;points=[[0,0.5],[1,0.5]];portConstraint=eastwest;" parent="Hpd59Qbbizcu43VCn_N1-1" vertex="1"><mxGeometry y="26" width="230" height="26" as="geometry"/></mxCell><mxCell id="Hpd59Qbbizcu43VCn_N1-3" value="" style="line;strokeWidth=1;align=left;verticalAlign=middle;spacingTop=-1;spacingLeft=3;spacingRight=3;rotatable=0;labelPosition=right;points=[];portConstraint=eastwest;" parent="Hpd59Qbbizcu43VCn_N1-1" vertex="1"><mxGeometry y="52" width="230" height="8" as="geometry"/></mxCell><mxCell id="Hpd59Qbbizcu43VCn_N1-4" value="+ isSolid(): boolean&#10;+ isLiquid(): boolean&#10;" style="text;align=left;verticalAlign=top;spacingLeft=4;spacingRight=4;overflow=hidden;rotatable=0;points=[[0,0.5],[1,0.5]];portConstraint=eastwest;" parent="Hpd59Qbbizcu43VCn_N1-1" vertex="1"><mxGeometry y="60" width="230" height="40" as="geometry"/></mxCell><mxCell id="Hpd59Qbbizcu43VCn_N1-5" value="" style="endArrow=block;dashed=1;endFill=0;endSize=12;html=1;rounded=0;exitX=1;exitY=0.5;exitDx=0;exitDy=0;" parent="WIyWlLk6GJQsqaUBKTNV-1" source="Hpd59Qbbizcu43VCn_N1-11" target="Hpd59Qbbizcu43VCn_N1-4" edge="1"><mxGeometry width="160" relative="1" as="geometry"><mxPoint x="480" y="-250" as="sourcePoint"/><mxPoint x="640" y="-250" as="targetPoint"/></mxGeometry></mxCell><mxCell id="Hpd59Qbbizcu43VCn_N1-6" value="ForgeMaterial" style="swimlane;fontStyle=1;align=center;verticalAlign=top;childLayout=stackLayout;horizontal=1;startSize=26;horizontalStack=0;resizeParent=1;resizeParentMax=0;resizeLast=0;collapsible=1;marginBottom=0;" parent="WIyWlLk6GJQsqaUBKTNV-1" vertex="1"><mxGeometry x="360" y="-310" width="290" height="100" as="geometry"/></mxCell><mxCell id="Hpd59Qbbizcu43VCn_N1-7" value="+ material: net.minecraft.world.level.material.Material" style="text;align=left;verticalAlign=top;spacingLeft=4;spacingRight=4;overflow=hidden;rotatable=0;points=[[0,0.5],[1,0.5]];portConstraint=eastwest;" parent="Hpd59Qbbizcu43VCn_N1-6" vertex="1"><mxGeometry y="26" width="290" height="26" as="geometry"/></mxCell><mxCell id="Hpd59Qbbizcu43VCn_N1-8" value="" style="line;strokeWidth=1;align=left;verticalAlign=middle;spacingTop=-1;spacingLeft=3;spacingRight=3;rotatable=0;labelPosition=right;points=[];portConstraint=eastwest;" parent="Hpd59Qbbizcu43VCn_N1-6" vertex="1"><mxGeometry y="52" width="290" height="8" as="geometry"/></mxCell><mxCell id="Hpd59Qbbizcu43VCn_N1-9" value="+ isSolid(): boolean&#10;+ isLiquid(): boolean&#10;" style="text;align=left;verticalAlign=top;spacingLeft=4;spacingRight=4;overflow=hidden;rotatable=0;points=[[0,0.5],[1,0.5]];portConstraint=eastwest;" parent="Hpd59Qbbizcu43VCn_N1-6" vertex="1"><mxGeometry y="60" width="290" height="40" as="geometry"/></mxCell><mxCell id="Hpd59Qbbizcu43VCn_N1-10" value="" style="endArrow=block;dashed=1;endFill=0;endSize=12;html=1;rounded=0;exitX=-0.011;exitY=0.464;exitDx=0;exitDy=0;exitPerimeter=0;" parent="WIyWlLk6GJQsqaUBKTNV-1" source="Hpd59Qbbizcu43VCn_N1-11" target="Hpd59Qbbizcu43VCn_N1-9" edge="1"><mxGeometry width="160" relative="1" as="geometry"><mxPoint x="530" y="-260" as="sourcePoint"/><mxPoint x="690" y="-260" as="targetPoint"/></mxGeometry></mxCell><mxCell id="Hpd59Qbbizcu43VCn_N1-11" value="&lt;p style=&quot;margin: 0px ; margin-top: 4px ; text-align: center&quot;&gt;&lt;i&gt;&amp;lt;&amp;lt;Interface&amp;gt;&amp;gt;&lt;/i&gt;&lt;br&gt;&lt;b&gt;IMaterial&lt;/b&gt;&lt;/p&gt;&lt;br&gt;&lt;hr size=&quot;1&quot;&gt;&lt;p style=&quot;margin: 0px ; margin-left: 4px&quot;&gt;+ isSolid(): boolean&lt;br&gt;&lt;/p&gt;&lt;p style=&quot;margin: 0px ; margin-left: 4px&quot;&gt;+ hasGravity(): boolean&lt;/p&gt;&lt;p style=&quot;margin: 0px ; margin-left: 4px&quot;&gt;+ getKey(): String&lt;/p&gt;&lt;p style=&quot;margin: 0px ; margin-left: 4px&quot;&gt;+ equals(String key): boolean&lt;/p&gt;&lt;p style=&quot;margin: 0px ; margin-left: 4px&quot;&gt;+ createBlockData(): IBlockData&lt;/p&gt;&lt;p style=&quot;margin: 0px ; margin-left: 4px&quot;&gt;+&amp;nbsp;isTransparent(): boolean&lt;/p&gt;&lt;p style=&quot;margin: 0px ; margin-left: 4px&quot;&gt;+ getName(): String&lt;/p&gt;" style="verticalAlign=top;align=left;overflow=fill;fontSize=12;fontFamily=Helvetica;html=1;glass=0;" parent="WIyWlLk6GJQsqaUBKTNV-1" vertex="1"><mxGeometry x="580" y="-150" width="190" height="160" as="geometry"/></mxCell><mxCell id="Hpd59Qbbizcu43VCn_N1-22" value="&lt;p style=&quot;margin: 0px ; margin-top: 4px ; text-align: center&quot;&gt;&lt;i&gt;&amp;lt;&amp;lt;Interface&amp;gt;&amp;gt;&lt;/i&gt;&lt;br&gt;&lt;b&gt;IWorld&lt;/b&gt;&lt;/p&gt;&lt;hr size=&quot;1&quot;&gt;&lt;p style=&quot;margin: 0px ; margin-left: 4px&quot;&gt;+ getBlock(ILocation): IBlock&lt;/p&gt;&lt;p style=&quot;margin: 0px ; margin-left: 4px&quot;&gt;+&amp;nbsp;getBlock(int x, int y, int z): IBlock&lt;br&gt;+ getMinWorldHeight(): int&lt;/p&gt;&lt;p style=&quot;margin: 0px ; margin-left: 4px&quot;&gt;+ getMaxWorldHeight(): int&lt;/p&gt;&lt;p style=&quot;margin: 0px ; margin-left: 4px&quot;&gt;+ setMaterial(ILocation, IMaterial): void&lt;/p&gt;&lt;p style=&quot;margin: 0px ; margin-left: 4px&quot;&gt;+ getMaterial(ILocation):&amp;nbsp;IMaterial&lt;/p&gt;&lt;p style=&quot;margin: 0px ; margin-left: 4px&quot;&gt;+ setBlock(ILocation location, IBlock block): void&lt;/p&gt;&lt;p style=&quot;margin: 0px ; margin-left: 4px&quot;&gt;+ getChunkAtLocation(int x, int z): IChunk&lt;/p&gt;&lt;p style=&quot;margin: 0px ; margin-left: 4px&quot;&gt;+ getChunkAtLocation(ILocation location): IChunk&lt;/p&gt;&lt;p style=&quot;margin: 0px ; margin-left: 4px&quot;&gt;+ refreshChunk(int x, int z): void&lt;/p&gt;&lt;p style=&quot;margin: 0px ; margin-left: 4px&quot;&gt;+ regenerateChunk(int x, int z): void&lt;/p&gt;&lt;p style=&quot;margin: 0px ; margin-left: 4px&quot;&gt;+ strikeLightning(ILocation location): void&lt;/p&gt;&lt;p style=&quot;margin: 0px ; margin-left: 4px&quot;&gt;+ spawn(ILocation location, IEntityType entityType): void&lt;/p&gt;&lt;p style=&quot;margin: 0px ; margin-left: 4px&quot;&gt;+ getHighestBlockYAt(int x, int z): int&lt;/p&gt;" style="verticalAlign=top;align=left;overflow=fill;fontSize=12;fontFamily=Helvetica;html=1;glass=0;" parent="WIyWlLk6GJQsqaUBKTNV-1" vertex="1"><mxGeometry x="-145" y="170" width="320" height="260" as="geometry"/></mxCell><mxCell id="Hpd59Qbbizcu43VCn_N1-32" style="edgeStyle=orthogonalEdgeStyle;rounded=0;orthogonalLoop=1;jettySize=auto;html=1;entryX=1;entryY=0.5;entryDx=0;entryDy=0;" parent="WIyWlLk6GJQsqaUBKTNV-1" source="Hpd59Qbbizcu43VCn_N1-31" target="Hpd59Qbbizcu43VCn_N1-55" edge="1"><mxGeometry relative="1" as="geometry"><mxPoint x="120" y="575" as="targetPoint"/></mxGeometry></mxCell><mxCell id="Hpd59Qbbizcu43VCn_N1-79" style="edgeStyle=orthogonalEdgeStyle;rounded=0;orthogonalLoop=1;jettySize=auto;html=1;exitX=0.5;exitY=0;exitDx=0;exitDy=0;entryX=0.5;entryY=1;entryDx=0;entryDy=0;endArrow=block;endFill=1;" parent="WIyWlLk6GJQsqaUBKTNV-1" source="Hpd59Qbbizcu43VCn_N1-31" target="35" edge="1"><mxGeometry relative="1" as="geometry"/></mxCell><mxCell id="Hpd59Qbbizcu43VCn_N1-36" value="ForgeBlock" style="swimlane;fontStyle=1;align=center;verticalAlign=top;childLayout=stackLayout;horizontal=1;startSize=26;horizontalStack=0;resizeParent=1;resizeParentMax=0;resizeLast=0;collapsible=1;marginBottom=0;glass=0;" parent="WIyWlLk6GJQsqaUBKTNV-1" vertex="1"><mxGeometry x="340" y="1030" width="250" height="60" as="geometry"/></mxCell><mxCell id="Hpd59Qbbizcu43VCn_N1-37" value="-block: net.minecraft.world.level.block" style="text;strokeColor=none;fillColor=none;align=left;verticalAlign=top;spacingLeft=4;spacingRight=4;overflow=hidden;rotatable=0;points=[[0,0.5],[1,0.5]];portConstraint=eastwest;glass=0;" parent="Hpd59Qbbizcu43VCn_N1-36" vertex="1"><mxGeometry y="26" width="250" height="26" as="geometry"/></mxCell><mxCell id="Hpd59Qbbizcu43VCn_N1-38" value="" style="line;strokeWidth=1;fillColor=none;align=left;verticalAlign=middle;spacingTop=-1;spacingLeft=3;spacingRight=3;rotatable=0;labelPosition=right;points=[];portConstraint=eastwest;glass=0;" parent="Hpd59Qbbizcu43VCn_N1-36" vertex="1"><mxGeometry y="52" width="250" height="8" as="geometry"/></mxCell><mxCell id="Hpd59Qbbizcu43VCn_N1-40" value="BukkitBlock" style="swimlane;fontStyle=1;align=center;verticalAlign=top;childLayout=stackLayout;horizontal=1;startSize=26;horizontalStack=0;resizeParent=1;resizeParentMax=0;resizeLast=0;collapsible=1;marginBottom=0;glass=0;" parent="WIyWlLk6GJQsqaUBKTNV-1" vertex="1"><mxGeometry x="670" y="1030" width="250" height="60" as="geometry"/></mxCell><mxCell id="Hpd59Qbbizcu43VCn_N1-41" value="- block: org.bukkit.Block" style="text;strokeColor=none;fillColor=none;align=left;verticalAlign=top;spacingLeft=4;spacingRight=4;overflow=hidden;rotatable=0;points=[[0,0.5],[1,0.5]];portConstraint=eastwest;glass=0;" parent="Hpd59Qbbizcu43VCn_N1-40" vertex="1"><mxGeometry y="26" width="250" height="26" as="geometry"/></mxCell><mxCell id="Hpd59Qbbizcu43VCn_N1-42" value="" style="line;strokeWidth=1;fillColor=none;align=left;verticalAlign=middle;spacingTop=-1;spacingLeft=3;spacingRight=3;rotatable=0;labelPosition=right;points=[];portConstraint=eastwest;glass=0;" parent="Hpd59Qbbizcu43VCn_N1-40" vertex="1"><mxGeometry y="52" width="250" height="8" as="geometry"/></mxCell><mxCell id="Hpd59Qbbizcu43VCn_N1-45" value="" style="endArrow=block;dashed=1;endFill=0;endSize=12;html=1;rounded=0;entryX=0.5;entryY=0;entryDx=0;entryDy=0;" parent="WIyWlLk6GJQsqaUBKTNV-1" source="20" target="Hpd59Qbbizcu43VCn_N1-40" edge="1"><mxGeometry width="160" relative="1" as="geometry"><mxPoint x="480.0000000000003" y="624.3399999999999" as="sourcePoint"/><mxPoint x="510" y="580" as="targetPoint"/></mxGeometry></mxCell><mxCell id="Hpd59Qbbizcu43VCn_N1-46" value="" style="endArrow=block;dashed=1;endFill=0;endSize=12;html=1;rounded=0;entryX=0.5;entryY=0;entryDx=0;entryDy=0;" parent="WIyWlLk6GJQsqaUBKTNV-1" source="23" target="Hpd59Qbbizcu43VCn_N1-36" edge="1"><mxGeometry width="160" relative="1" as="geometry"><mxPoint x="430" y="632.5" as="sourcePoint"/><mxPoint x="519.9999999999995" y="590" as="targetPoint"/></mxGeometry></mxCell><mxCell id="Hpd59Qbbizcu43VCn_N1-47" value="ForgeLocation" style="swimlane;fontStyle=1;align=center;verticalAlign=top;childLayout=stackLayout;horizontal=1;startSize=26;horizontalStack=0;resizeParent=1;resizeParentMax=0;resizeLast=0;collapsible=1;marginBottom=0;glass=0;" parent="WIyWlLk6GJQsqaUBKTNV-1" vertex="1"><mxGeometry x="-260" y="1020" width="250" height="180" as="geometry"/></mxCell><mxCell id="Hpd59Qbbizcu43VCn_N1-48" value="-location: " style="text;strokeColor=none;fillColor=none;align=left;verticalAlign=top;spacingLeft=4;spacingRight=4;overflow=hidden;rotatable=0;points=[[0,0.5],[1,0.5]];portConstraint=eastwest;glass=0;" parent="Hpd59Qbbizcu43VCn_N1-47" vertex="1"><mxGeometry y="26" width="250" height="26" as="geometry"/></mxCell><mxCell id="Hpd59Qbbizcu43VCn_N1-49" value="" style="line;strokeWidth=1;fillColor=none;align=left;verticalAlign=middle;spacingTop=-1;spacingLeft=3;spacingRight=3;rotatable=0;labelPosition=right;points=[];portConstraint=eastwest;glass=0;" parent="Hpd59Qbbizcu43VCn_N1-47" vertex="1"><mxGeometry y="52" width="250" height="8" as="geometry"/></mxCell><mxCell id="Hpd59Qbbizcu43VCn_N1-50" value="+ getX(): int&#10;+ getY(): int&#10;+ getZ(): int&#10;+ setX(int x): void&#10;+ setY(int y): void&#10;+ setZ(int z): void&#10;+ getWorld(): IWorld" style="text;strokeColor=none;fillColor=none;align=left;verticalAlign=top;spacingLeft=4;spacingRight=4;overflow=hidden;rotatable=0;points=[[0,0.5],[1,0.5]];portConstraint=eastwest;glass=0;" parent="Hpd59Qbbizcu43VCn_N1-47" vertex="1"><mxGeometry y="60" width="250" height="120" as="geometry"/></mxCell><mxCell id="Hpd59Qbbizcu43VCn_N1-51" value="BukkitLocation" style="swimlane;fontStyle=1;align=center;verticalAlign=top;childLayout=stackLayout;horizontal=1;startSize=26;horizontalStack=0;resizeParent=1;resizeParentMax=0;resizeLast=0;collapsible=1;marginBottom=0;glass=0;" parent="WIyWlLk6GJQsqaUBKTNV-1" vertex="1"><mxGeometry x="30" y="1020" width="250" height="180" as="geometry"/></mxCell><mxCell id="Hpd59Qbbizcu43VCn_N1-52" value="- location: org.bukkit.Location" style="text;strokeColor=none;fillColor=none;align=left;verticalAlign=top;spacingLeft=4;spacingRight=4;overflow=hidden;rotatable=0;points=[[0,0.5],[1,0.5]];portConstraint=eastwest;glass=0;" parent="Hpd59Qbbizcu43VCn_N1-51" vertex="1"><mxGeometry y="26" width="250" height="26" as="geometry"/></mxCell><mxCell id="Hpd59Qbbizcu43VCn_N1-53" value="" style="line;strokeWidth=1;fillColor=none;align=left;verticalAlign=middle;spacingTop=-1;spacingLeft=3;spacingRight=3;rotatable=0;labelPosition=right;points=[];portConstraint=eastwest;glass=0;" parent="Hpd59Qbbizcu43VCn_N1-51" vertex="1"><mxGeometry y="52" width="250" height="8" as="geometry"/></mxCell><mxCell id="Hpd59Qbbizcu43VCn_N1-54" value="+ getX(): int&#10;+ getY(): int&#10;+ getZ(): int&#10;+ setX(int x): void&#10;+ setY(int y): void&#10;+ setZ(int z): void&#10;+ getWorld(): IWorld" style="text;strokeColor=none;fillColor=none;align=left;verticalAlign=top;spacingLeft=4;spacingRight=4;overflow=hidden;rotatable=0;points=[[0,0.5],[1,0.5]];portConstraint=eastwest;glass=0;" parent="Hpd59Qbbizcu43VCn_N1-51" vertex="1"><mxGeometry y="60" width="250" height="120" as="geometry"/></mxCell><mxCell id="Hpd59Qbbizcu43VCn_N1-59" style="edgeStyle=orthogonalEdgeStyle;rounded=0;orthogonalLoop=1;jettySize=auto;html=1;exitX=0.5;exitY=0;exitDx=0;exitDy=0;entryX=0.5;entryY=1;entryDx=0;entryDy=0;endArrow=block;endFill=1;" parent="WIyWlLk6GJQsqaUBKTNV-1" source="Hpd59Qbbizcu43VCn_N1-55" target="Hpd59Qbbizcu43VCn_N1-22" edge="1"><mxGeometry relative="1" as="geometry"/></mxCell><mxCell id="Hpd59Qbbizcu43VCn_N1-55" value="&lt;p style=&quot;margin: 0px ; margin-top: 4px ; text-align: center&quot;&gt;&lt;i&gt;&amp;lt;&amp;lt;Interface&amp;gt;&amp;gt;&lt;/i&gt;&lt;br&gt;&lt;b&gt;ILocation&lt;/b&gt;&lt;/p&gt;&lt;hr size=&quot;1&quot;&gt;&lt;p style=&quot;margin: 0px ; margin-left: 4px&quot;&gt;+ final world: IWorld&lt;/p&gt;&lt;hr size=&quot;1&quot;&gt;&lt;p style=&quot;margin: 0px 0px 0px 4px&quot;&gt;+ getX(): int&lt;br&gt;&lt;/p&gt;&lt;p style=&quot;margin: 0px 0px 0px 4px&quot;&gt;+ getY(): int&lt;br&gt;&lt;/p&gt;&lt;p style=&quot;margin: 0px 0px 0px 4px&quot;&gt;+ getZ(): int&lt;br&gt;&lt;/p&gt;&lt;p style=&quot;margin: 0px 0px 0px 4px&quot;&gt;&lt;span&gt;+ setX(int x): void&lt;/span&gt;&lt;br&gt;&lt;/p&gt;&lt;p style=&quot;margin: 0px 0px 0px 4px&quot;&gt;+ setY(int y): void&lt;br&gt;&lt;/p&gt;&lt;p style=&quot;margin: 0px 0px 0px 4px&quot;&gt;+ setZ(int z): void&lt;br&gt;&lt;/p&gt;&lt;p style=&quot;margin: 0px 0px 0px 4px&quot;&gt;+ default addX(int x): void&lt;/p&gt;&lt;p style=&quot;margin: 0px 0px 0px 4px&quot;&gt;+ default addY(int y): void&lt;br&gt;&lt;/p&gt;&lt;p style=&quot;margin: 0px 0px 0px 4px&quot;&gt;+ default addZ(int z): void&lt;br&gt;&lt;/p&gt;&lt;p style=&quot;margin: 0px 0px 0px 4px&quot;&gt;+ default add(ILocation location): void&lt;/p&gt;&lt;p style=&quot;margin: 0px 0px 0px 4px&quot;&gt;+ default add(int x, int y, int z): void&lt;/p&gt;&lt;p style=&quot;margin: 0px 0px 0px 4px&quot;&gt;+ getYaw(): float&lt;/p&gt;&lt;p style=&quot;margin: 0px 0px 0px 4px&quot;&gt;+ getPitch(): float&amp;nbsp;&lt;/p&gt;&lt;p style=&quot;margin: 0px 0px 0px 4px&quot;&gt;+ setYaw(float yaw): void&lt;/p&gt;&lt;p style=&quot;margin: 0px 0px 0px 4px&quot;&gt;+ setPitch(float pitch): void&lt;/p&gt;&lt;p style=&quot;margin: 0px 0px 0px 4px&quot;&gt;+ getWorld(): IWorld&lt;/p&gt;&lt;p style=&quot;margin: 0px 0px 0px 4px&quot;&gt;+ getClampedBlock(): IBlock&lt;br&gt;+ getBlock(): IBlock&lt;br&gt;&lt;/p&gt;&lt;p style=&quot;margin: 0px 0px 0px 4px&quot;&gt;+ toVector(): IVector&lt;/p&gt;&lt;p style=&quot;margin: 0px 0px 0px 4px&quot;&gt;+ distance(ILocation location)&lt;/p&gt;&lt;p style=&quot;margin: 0px 0px 0px 4px&quot;&gt;&lt;br&gt;&lt;/p&gt;" style="verticalAlign=top;align=left;overflow=fill;fontSize=12;fontFamily=Helvetica;html=1;glass=0;" parent="WIyWlLk6GJQsqaUBKTNV-1" vertex="1"><mxGeometry x="-97.5" y="460" width="225" height="390" as="geometry"/></mxCell><mxCell id="Hpd59Qbbizcu43VCn_N1-57" value="" style="endArrow=block;dashed=1;endFill=0;endSize=12;html=1;rounded=0;entryX=0.5;entryY=0;entryDx=0;entryDy=0;exitX=0.75;exitY=0;exitDx=0;exitDy=0;" parent="WIyWlLk6GJQsqaUBKTNV-1" source="0" target="Hpd59Qbbizcu43VCn_N1-51" edge="1"><mxGeometry width="160" relative="1" as="geometry"><mxPoint x="60" y="840" as="sourcePoint"/><mxPoint x="150" y="870" as="targetPoint"/></mxGeometry></mxCell><mxCell id="Hpd59Qbbizcu43VCn_N1-58" value="" style="endArrow=block;dashed=1;endFill=0;endSize=12;html=1;rounded=0;entryX=0.5;entryY=0;entryDx=0;entryDy=0;exitX=0.25;exitY=0;exitDx=0;exitDy=0;" parent="WIyWlLk6GJQsqaUBKTNV-1" source="0" target="Hpd59Qbbizcu43VCn_N1-47" edge="1"><mxGeometry width="160" relative="1" as="geometry"><mxPoint x="60" y="850" as="sourcePoint"/><mxPoint x="205" y="920" as="targetPoint"/></mxGeometry></mxCell><mxCell id="Hpd59Qbbizcu43VCn_N1-68" value="ForgeWorld" style="swimlane;fontStyle=1;align=center;verticalAlign=top;childLayout=stackLayout;horizontal=1;startSize=26;horizontalStack=0;resizeParent=1;resizeParentMax=0;resizeLast=0;collapsible=1;marginBottom=0;glass=0;" parent="WIyWlLk6GJQsqaUBKTNV-1" vertex="1"><mxGeometry x="-270" y="-20" width="250" height="120" as="geometry"/></mxCell><mxCell id="Hpd59Qbbizcu43VCn_N1-69" value="- level: net.minecraft.world.level.Level " style="text;strokeColor=none;fillColor=none;align=left;verticalAlign=top;spacingLeft=4;spacingRight=4;overflow=hidden;rotatable=0;points=[[0,0.5],[1,0.5]];portConstraint=eastwest;glass=0;" parent="Hpd59Qbbizcu43VCn_N1-68" vertex="1"><mxGeometry y="26" width="250" height="26" as="geometry"/></mxCell><mxCell id="Hpd59Qbbizcu43VCn_N1-70" value="" style="line;strokeWidth=1;fillColor=none;align=left;verticalAlign=middle;spacingTop=-1;spacingLeft=3;spacingRight=3;rotatable=0;labelPosition=right;points=[];portConstraint=eastwest;glass=0;" parent="Hpd59Qbbizcu43VCn_N1-68" vertex="1"><mxGeometry y="52" width="250" height="8" as="geometry"/></mxCell><mxCell id="Hpd59Qbbizcu43VCn_N1-80" value="&lt;p style=&quot;margin: 0px 0px 0px 4px&quot;&gt;+ getBlock(ILocation): IBlock&lt;br&gt;&lt;/p&gt;&lt;p style=&quot;margin: 0px 0px 0px 4px&quot;&gt;+ getMinWorldHeight(): int&lt;/p&gt;&lt;p style=&quot;margin: 0px 0px 0px 4px&quot;&gt;+ getMaxWorldHeight(): int&lt;/p&gt;&lt;p style=&quot;margin: 0px 0px 0px 4px&quot;&gt;+ setBlock(IMaterial): void&lt;/p&gt;" style="text;html=1;align=left;verticalAlign=middle;resizable=0;points=[];autosize=1;strokeColor=none;fillColor=none;" parent="Hpd59Qbbizcu43VCn_N1-68" vertex="1"><mxGeometry y="60" width="250" height="60" as="geometry"/></mxCell><mxCell id="Hpd59Qbbizcu43VCn_N1-72" value="BukkitWorld" style="swimlane;fontStyle=1;align=center;verticalAlign=top;childLayout=stackLayout;horizontal=1;startSize=26;horizontalStack=0;resizeParent=1;resizeParentMax=0;resizeLast=0;collapsible=1;marginBottom=0;glass=0;" parent="WIyWlLk6GJQsqaUBKTNV-1" vertex="1"><mxGeometry x="20" y="-22" width="250" height="130" as="geometry"/></mxCell><mxCell id="Hpd59Qbbizcu43VCn_N1-73" value="- world: org.bukkit.World" style="text;strokeColor=none;fillColor=none;align=left;verticalAlign=top;spacingLeft=4;spacingRight=4;overflow=hidden;rotatable=0;points=[[0,0.5],[1,0.5]];portConstraint=eastwest;glass=0;" parent="Hpd59Qbbizcu43VCn_N1-72" vertex="1"><mxGeometry y="26" width="250" height="26" as="geometry"/></mxCell><mxCell id="Hpd59Qbbizcu43VCn_N1-74" value="" style="line;strokeWidth=1;fillColor=none;align=left;verticalAlign=middle;spacingTop=-1;spacingLeft=3;spacingRight=3;rotatable=0;labelPosition=right;points=[];portConstraint=eastwest;glass=0;" parent="Hpd59Qbbizcu43VCn_N1-72" vertex="1"><mxGeometry y="52" width="250" height="8" as="geometry"/></mxCell><mxCell id="Hpd59Qbbizcu43VCn_N1-75" value="+ getBlock(ILocation): IBlock&#10;+ getMinWorldHeight(): int&#10;+ getMaxWorldHeight(): int&#10;+ setBlock(IMaterial): void" style="text;strokeColor=none;fillColor=none;align=left;verticalAlign=top;spacingLeft=4;spacingRight=4;overflow=hidden;rotatable=0;points=[[0,0.5],[1,0.5]];portConstraint=eastwest;glass=0;" parent="Hpd59Qbbizcu43VCn_N1-72" vertex="1"><mxGeometry y="60" width="250" height="70" as="geometry"/></mxCell><mxCell id="Hpd59Qbbizcu43VCn_N1-76" value="" style="endArrow=block;dashed=1;endFill=0;endSize=12;html=1;rounded=0;entryX=0.5;entryY=1;entryDx=0;entryDy=0;exitX=0.75;exitY=0;exitDx=0;exitDy=0;" parent="WIyWlLk6GJQsqaUBKTNV-1" source="Hpd59Qbbizcu43VCn_N1-22" target="Hpd59Qbbizcu43VCn_N1-72" edge="1"><mxGeometry width="160" relative="1" as="geometry"><mxPoint x="50" y="-77" as="sourcePoint"/><mxPoint x="140" y="-47" as="targetPoint"/></mxGeometry></mxCell><mxCell id="Hpd59Qbbizcu43VCn_N1-77" value="" style="endArrow=block;dashed=1;endFill=0;endSize=12;html=1;rounded=0;entryX=0.5;entryY=1;entryDx=0;entryDy=0;exitX=0.25;exitY=0;exitDx=0;exitDy=0;" parent="WIyWlLk6GJQsqaUBKTNV-1" source="Hpd59Qbbizcu43VCn_N1-22" target="Hpd59Qbbizcu43VCn_N1-68" edge="1"><mxGeometry width="160" relative="1" as="geometry"><mxPoint x="-42.5" y="-79.99999999999955" as="sourcePoint"/><mxPoint x="195" y="3" as="targetPoint"/></mxGeometry></mxCell><mxCell id="Hpd59Qbbizcu43VCn_N1-85" value="&lt;p style=&quot;margin: 0px ; margin-top: 4px ; text-align: center&quot;&gt;&lt;b&gt;AbstractPlayer&lt;/b&gt;&lt;/p&gt;&lt;hr size=&quot;1&quot;&gt;&lt;p style=&quot;margin: 0px ; margin-left: 4px&quot;&gt;+ getWorld(): IWorld&lt;br&gt;&lt;/p&gt;&lt;p style=&quot;margin: 0px ; margin-left: 4px&quot;&gt;+&amp;nbsp;getUniqueId(): java.util.UUID&lt;/p&gt;&lt;p style=&quot;margin: 0px ; margin-left: 4px&quot;&gt;+ sendMessage(String message): void&lt;/p&gt;&lt;p style=&quot;margin: 0px ; margin-left: 4px&quot;&gt;+ hasPermission(String permissionNode): boolean&lt;/p&gt;&lt;p style=&quot;margin: 0px ; margin-left: 4px&quot;&gt;+ getLocation(): ILocation&lt;/p&gt;&lt;p style=&quot;margin: 0px ; margin-left: 4px&quot;&gt;+ isSneaking(): boolean&lt;/p&gt;&lt;p style=&quot;margin: 0px ; margin-left: 4px&quot;&gt;&lt;span&gt;+ getName(): String&lt;/span&gt;&lt;br&gt;&lt;/p&gt;&lt;p style=&quot;margin: 0px ; margin-left: 4px&quot;&gt;+ teleport(ILocation location): void&lt;/p&gt;&lt;p style=&quot;margin: 0px ; margin-left: 4px&quot;&gt;+ getEntityId(): int&lt;/p&gt;&lt;p style=&quot;margin: 0px ; margin-left: 4px&quot;&gt;+ addPassenger(IEntity entity): void&lt;/p&gt;&lt;p style=&quot;margin: 0px ; margin-left: 4px&quot;&gt;&lt;br&gt;&lt;/p&gt;" style="verticalAlign=top;align=left;overflow=fill;fontSize=12;fontFamily=Helvetica;html=1;glass=0;" parent="WIyWlLk6GJQsqaUBKTNV-1" vertex="1"><mxGeometry x="-775" y="-794" width="280" height="210" as="geometry"/></mxCell><mxCell id="Hpd59Qbbizcu43VCn_N1-86" value="ForgePlayer" style="swimlane;fontStyle=1;align=center;verticalAlign=top;childLayout=stackLayout;horizontal=1;startSize=26;horizontalStack=0;resizeParent=1;resizeParentMax=0;resizeLast=0;collapsible=1;marginBottom=0;glass=0;" parent="WIyWlLk6GJQsqaUBKTNV-1" vertex="1"><mxGeometry x="-920" y="-890" width="270" height="60" as="geometry"/></mxCell><mxCell id="Hpd59Qbbizcu43VCn_N1-87" value="- player: net.minecraft.world.entity.player.Player" style="text;strokeColor=none;fillColor=none;align=left;verticalAlign=top;spacingLeft=4;spacingRight=4;overflow=hidden;rotatable=0;points=[[0,0.5],[1,0.5]];portConstraint=eastwest;glass=0;" parent="Hpd59Qbbizcu43VCn_N1-86" vertex="1"><mxGeometry y="26" width="270" height="26" as="geometry"/></mxCell><mxCell id="Hpd59Qbbizcu43VCn_N1-88" value="" style="line;strokeWidth=1;fillColor=none;align=left;verticalAlign=middle;spacingTop=-1;spacingLeft=3;spacingRight=3;rotatable=0;labelPosition=right;points=[];portConstraint=eastwest;glass=0;" parent="Hpd59Qbbizcu43VCn_N1-86" vertex="1"><mxGeometry y="52" width="270" height="8" as="geometry"/></mxCell><mxCell id="Hpd59Qbbizcu43VCn_N1-90" value="BukkitPlayer" style="swimlane;fontStyle=1;align=center;verticalAlign=top;childLayout=stackLayout;horizontal=1;startSize=26;horizontalStack=0;resizeParent=1;resizeParentMax=0;resizeLast=0;collapsible=1;marginBottom=0;glass=0;" parent="WIyWlLk6GJQsqaUBKTNV-1" vertex="1"><mxGeometry x="-630" y="-890" width="250" height="60" as="geometry"/></mxCell><mxCell id="Hpd59Qbbizcu43VCn_N1-91" value="- player: org.bukkit.entity.Player" style="text;strokeColor=none;fillColor=none;align=left;verticalAlign=top;spacingLeft=4;spacingRight=4;overflow=hidden;rotatable=0;points=[[0,0.5],[1,0.5]];portConstraint=eastwest;glass=0;" parent="Hpd59Qbbizcu43VCn_N1-90" vertex="1"><mxGeometry y="26" width="250" height="26" as="geometry"/></mxCell><mxCell id="Hpd59Qbbizcu43VCn_N1-92" value="" style="line;strokeWidth=1;fillColor=none;align=left;verticalAlign=middle;spacingTop=-1;spacingLeft=3;spacingRight=3;rotatable=0;labelPosition=right;points=[];portConstraint=eastwest;glass=0;" parent="Hpd59Qbbizcu43VCn_N1-90" vertex="1"><mxGeometry y="52" width="250" height="8" as="geometry"/></mxCell><mxCell id="Hpd59Qbbizcu43VCn_N1-94" value="" style="endArrow=block;dashed=1;endFill=0;endSize=12;html=1;rounded=0;entryX=0.5;entryY=1;entryDx=0;entryDy=0;exitX=0.75;exitY=0;exitDx=0;exitDy=0;" parent="WIyWlLk6GJQsqaUBKTNV-1" source="Hpd59Qbbizcu43VCn_N1-85" target="Hpd59Qbbizcu43VCn_N1-90" edge="1"><mxGeometry width="160" relative="1" as="geometry"><mxPoint x="-620" y="-947" as="sourcePoint"/><mxPoint x="-530" y="-917" as="targetPoint"/></mxGeometry></mxCell><mxCell id="Hpd59Qbbizcu43VCn_N1-95" value="" style="endArrow=block;dashed=1;endFill=0;endSize=12;html=1;rounded=0;entryX=0.5;entryY=1;entryDx=0;entryDy=0;exitX=0.25;exitY=0;exitDx=0;exitDy=0;" parent="WIyWlLk6GJQsqaUBKTNV-1" source="Hpd59Qbbizcu43VCn_N1-85" target="Hpd59Qbbizcu43VCn_N1-86" edge="1"><mxGeometry width="160" relative="1" as="geometry"><mxPoint x="-712.5" y="-949.9999999999995" as="sourcePoint"/><mxPoint x="-475" y="-867" as="targetPoint"/></mxGeometry></mxCell><mxCell id="0" value="AbstractLocation" style="swimlane;fontStyle=1;align=center;verticalAlign=top;childLayout=stackLayout;horizontal=1;startSize=26;horizontalStack=0;resizeParent=1;resizeParentMax=0;resizeLast=0;collapsible=1;marginBottom=0;" parent="WIyWlLk6GJQsqaUBKTNV-1" vertex="1"><mxGeometry x="-70" y="900" width="160" height="60" as="geometry"/></mxCell><mxCell id="1" value="+ final world: IWorld" style="text;strokeColor=none;fillColor=none;align=left;verticalAlign=top;spacingLeft=4;spacingRight=4;overflow=hidden;rotatable=0;points=[[0,0.5],[1,0.5]];portConstraint=eastwest;" parent="0" vertex="1"><mxGeometry y="26" width="160" height="26" as="geometry"/></mxCell><mxCell id="2" value="" style="line;strokeWidth=1;fillColor=none;align=left;verticalAlign=middle;spacingTop=-1;spacingLeft=3;spacingRight=3;rotatable=0;labelPosition=right;points=[];portConstraint=eastwest;" parent="0" vertex="1"><mxGeometry y="52" width="160" height="8" as="geometry"/></mxCell><mxCell id="4" value="" style="endArrow=block;dashed=1;endFill=0;endSize=12;html=1;rounded=0;exitX=0.5;exitY=1;exitDx=0;exitDy=0;" parent="WIyWlLk6GJQsqaUBKTNV-1" target="0" edge="1"><mxGeometry width="160" relative="1" as="geometry"><mxPoint x="25.00000000000091" y="890.0000000000005" as="sourcePoint"/><mxPoint x="80" y="920" as="targetPoint"/></mxGeometry></mxCell><mxCell id="5" value="&lt;p style=&quot;margin: 0px ; margin-top: 4px ; text-align: center&quot;&gt;&lt;i&gt;&amp;lt;&amp;lt;Interface&amp;gt;&amp;gt;&lt;/i&gt;&lt;br&gt;&lt;b&gt;IVoxelsniper&lt;/b&gt;&lt;/p&gt;&lt;br&gt;&lt;hr size=&quot;1&quot;&gt;&lt;p style=&quot;margin: 0px ; margin-left: 4px&quot;&gt;+ getPlayer(UUID uuid): AbstractPlayer&lt;/p&gt;&lt;p style=&quot;margin: 0px ; margin-left: 4px&quot;&gt;+ getEnvironment(): VoxelEnvironment&lt;/p&gt;" style="verticalAlign=top;align=left;overflow=fill;fontSize=12;fontFamily=Helvetica;html=1;" parent="WIyWlLk6GJQsqaUBKTNV-1" vertex="1"><mxGeometry x="-750" y="460" width="230" height="140" as="geometry"/></mxCell><mxCell id="7" style="edgeStyle=orthogonalEdgeStyle;rounded=0;orthogonalLoop=1;jettySize=auto;html=1;entryX=1;entryY=0.5;entryDx=0;entryDy=0;" parent="WIyWlLk6GJQsqaUBKTNV-1" source="6" target="5" edge="1"><mxGeometry relative="1" as="geometry"/></mxCell><mxCell id="6" value="&lt;p style=&quot;margin: 0px ; margin-top: 4px ; text-align: center&quot;&gt;&lt;i&gt;&amp;lt;&amp;lt;enumeration&amp;gt;&amp;gt;&lt;/i&gt;&lt;br&gt;&lt;b&gt;VoxelEnvironment&lt;/b&gt;&lt;/p&gt;&lt;br&gt;&lt;hr size=&quot;1&quot;&gt;&lt;p style=&quot;margin: 0px ; margin-left: 4px&quot;&gt;BUKKIT&lt;/p&gt;&lt;p style=&quot;margin: 0px ; margin-left: 4px&quot;&gt;FORGE&lt;/p&gt;" style="verticalAlign=top;align=left;overflow=fill;fontSize=12;fontFamily=Helvetica;html=1;" parent="WIyWlLk6GJQsqaUBKTNV-1" vertex="1"><mxGeometry x="-420" y="460" width="190" height="140" as="geometry"/></mxCell><mxCell id="8" value="VoxelEnvironment is a utility enum. It can for example be used to disable brushes based on environment&lt;br&gt;" style="shape=note;strokeWidth=2;fontSize=14;size=20;whiteSpace=wrap;html=1;fillColor=#fff2cc;strokeColor=#d6b656;fontColor=#666600;" parent="WIyWlLk6GJQsqaUBKTNV-1" vertex="1"><mxGeometry x="-420" y="370" width="190" height="80" as="geometry"/></mxCell><mxCell id="Hpd59Qbbizcu43VCn_N1-31" value="&lt;p style=&quot;margin: 0px ; margin-top: 4px ; text-align: center&quot;&gt;&lt;i&gt;&amp;lt;&amp;lt;Interface&amp;gt;&amp;gt;&lt;/i&gt;&lt;br&gt;&lt;b&gt;IBlock&lt;/b&gt;&lt;/p&gt;&lt;hr size=&quot;1&quot;&gt;&lt;p style=&quot;margin: 0px ; margin-left: 4px&quot;&gt;&lt;br&gt;&lt;/p&gt;&lt;hr size=&quot;1&quot;&gt;&lt;p style=&quot;margin: 0px ; margin-left: 4px&quot;&gt;+ getMaterial(): IMaterial&lt;br&gt;+ setMaterial(IMaterial material): void&lt;br&gt;&lt;/p&gt;&lt;p style=&quot;margin: 0px ; margin-left: 4px&quot;&gt;+ setMaterial(IMaterial material, boolean applyPhysics): void&lt;br&gt;&lt;/p&gt;&lt;p style=&quot;margin: 0px ; margin-left: 4px&quot;&gt;+ getLocation(): ILocation&lt;/p&gt;&lt;p style=&quot;margin: 0px ; margin-left: 4px&quot;&gt;+ getWorld(): IWorld&lt;/p&gt;&lt;p style=&quot;margin: 0px ; margin-left: 4px&quot;&gt;+ getX(): int&lt;br&gt;&lt;/p&gt;&amp;nbsp;+ getY(): int&lt;br&gt;&amp;nbsp;+ getZ(): int&lt;br&gt;&amp;nbsp;+ getFace(IBlock block): BlockFace&lt;br&gt;&amp;nbsp;+ getRelative(BlockFace blockFace): IBlock&lt;br&gt;&amp;nbsp;+ getRelative(int x, int y, int z): IBlock&lt;br&gt;&amp;nbsp;+ getBlockData(): IBlockData&lt;br&gt;&amp;nbsp;+&amp;nbsp;setBlockData(IBlockData blockData): void&lt;br&gt;&amp;nbsp;+&amp;nbsp;setBlockData(IBlockData blockData, boolean applyPhysics): void&lt;br&gt;&amp;nbsp;+ getData(): byte @Deprecated&lt;br&gt;&amp;nbsp;+&amp;nbsp;isEmpty(): boolean&lt;br&gt;&amp;nbsp;+ isLiquid(): boolean&lt;br&gt;&amp;nbsp;+ getState(): IBlockState&lt;br&gt;&amp;nbsp;+ isBlockFacePowered(BlockFace face): boolean&lt;br&gt;&amp;nbsp;+ isBlockFaceIndirectlyPowered(BlockFace face): boolean&lt;br&gt;&amp;nbsp;+ isBlockIndirectlyPowered(BlockFace face): boolean&lt;br&gt;&amp;nbsp;+ isBlockPowered(BlockFace face): boolean&lt;br&gt;&lt;br&gt;&lt;br&gt;&lt;br&gt;&lt;p style=&quot;margin: 0px ; margin-left: 4px&quot;&gt;&lt;br&gt;&lt;/p&gt;" style="verticalAlign=top;align=left;overflow=fill;fontSize=12;fontFamily=Helvetica;html=1;glass=0;" parent="WIyWlLk6GJQsqaUBKTNV-1" vertex="1"><mxGeometry x="435" y="310" width="380" height="390" as="geometry"/></mxCell><mxCell id="9" value="ForgeChunk" style="swimlane;fontStyle=1;align=center;verticalAlign=top;childLayout=stackLayout;horizontal=1;startSize=26;horizontalStack=0;resizeParent=1;resizeParentMax=0;resizeLast=0;collapsible=1;marginBottom=0;glass=0;" parent="WIyWlLk6GJQsqaUBKTNV-1" vertex="1"><mxGeometry x="1040" y="740" width="250" height="34" as="geometry"/></mxCell><mxCell id="11" value="" style="line;strokeWidth=1;fillColor=none;align=left;verticalAlign=middle;spacingTop=-1;spacingLeft=3;spacingRight=3;rotatable=0;labelPosition=right;points=[];portConstraint=eastwest;glass=0;" parent="9" vertex="1"><mxGeometry y="26" width="250" height="8" as="geometry"/></mxCell><mxCell id="13" value="BukkitChunk" style="swimlane;fontStyle=1;align=center;verticalAlign=top;childLayout=stackLayout;horizontal=1;startSize=26;horizontalStack=0;resizeParent=1;resizeParentMax=0;resizeLast=0;collapsible=1;marginBottom=0;glass=0;" parent="WIyWlLk6GJQsqaUBKTNV-1" vertex="1"><mxGeometry x="1310" y="740" width="250" height="34" as="geometry"/></mxCell><mxCell id="15" value="" style="line;strokeWidth=1;fillColor=none;align=left;verticalAlign=middle;spacingTop=-1;spacingLeft=3;spacingRight=3;rotatable=0;labelPosition=right;points=[];portConstraint=eastwest;glass=0;" parent="13" vertex="1"><mxGeometry y="26" width="250" height="8" as="geometry"/></mxCell><mxCell id="17" value="" style="endArrow=block;dashed=1;endFill=0;endSize=12;html=1;rounded=0;entryX=0.25;entryY=0;entryDx=0;entryDy=0;exitX=0.75;exitY=1;exitDx=0;exitDy=0;" parent="WIyWlLk6GJQsqaUBKTNV-1" source="19" target="13" edge="1"><mxGeometry width="160" relative="1" as="geometry"><mxPoint x="1150.0000000000002" y="704.3399999999999" as="sourcePoint"/><mxPoint x="1180" y="660" as="targetPoint"/></mxGeometry></mxCell><mxCell id="18" value="" style="endArrow=block;dashed=1;endFill=0;endSize=12;html=1;rounded=0;exitX=0.25;exitY=1;exitDx=0;exitDy=0;entryX=0.75;entryY=0;entryDx=0;entryDy=0;" parent="WIyWlLk6GJQsqaUBKTNV-1" source="19" target="9" edge="1"><mxGeometry width="160" relative="1" as="geometry"><mxPoint x="1280" y="710" as="sourcePoint"/><mxPoint x="1090" y="700" as="targetPoint"/></mxGeometry></mxCell><mxCell id="19" value="&lt;p style=&quot;margin: 0px ; margin-top: 4px ; text-align: center&quot;&gt;&lt;i&gt;&amp;lt;&amp;lt;Interface&amp;gt;&amp;gt;&lt;/i&gt;&lt;br&gt;&lt;b&gt;IChunk&lt;/b&gt;&lt;/p&gt;&lt;hr size=&quot;1&quot;&gt;&lt;p style=&quot;margin: 0px ; margin-left: 4px&quot;&gt;&lt;br&gt;&lt;/p&gt;&lt;hr size=&quot;1&quot;&gt;&lt;p style=&quot;margin: 0px ; margin-left: 4px&quot;&gt;&lt;/p&gt;getX(): int&lt;br&gt;getZ(): int&lt;br&gt;getBlock(int x, int y, int z): IBlock&lt;br&gt;getEntities(): Iterable&amp;lt;? extends IEntity&amp;gt;&lt;br&gt;&lt;p style=&quot;margin: 0px ; margin-left: 4px&quot;&gt;&lt;br&gt;&lt;/p&gt;" style="verticalAlign=top;align=left;overflow=fill;fontSize=12;fontFamily=Helvetica;html=1;glass=0;" parent="WIyWlLk6GJQsqaUBKTNV-1" vertex="1"><mxGeometry x="1170" y="560" width="250" height="130" as="geometry"/></mxCell><mxCell id="20" value="AbstractBlock" style="swimlane;fontStyle=1;align=center;verticalAlign=top;childLayout=stackLayout;horizontal=1;startSize=26;horizontalStack=0;resizeParent=1;resizeParentMax=0;resizeLast=0;collapsible=1;marginBottom=0;glass=0;" parent="WIyWlLk6GJQsqaUBKTNV-1" vertex="1"><mxGeometry x="500" y="760" width="250" height="128" as="geometry"/></mxCell><mxCell id="21" value="+ final location: ILocation&#10;+ material: IMaterial" style="text;strokeColor=none;fillColor=none;align=left;verticalAlign=top;spacingLeft=4;spacingRight=4;overflow=hidden;rotatable=0;points=[[0,0.5],[1,0.5]];portConstraint=eastwest;glass=0;" parent="20" vertex="1"><mxGeometry y="26" width="250" height="44" as="geometry"/></mxCell><mxCell id="22" value="" style="line;strokeWidth=1;fillColor=none;align=left;verticalAlign=middle;spacingTop=-1;spacingLeft=3;spacingRight=3;rotatable=0;labelPosition=right;points=[];portConstraint=eastwest;glass=0;" parent="20" vertex="1"><mxGeometry y="70" width="250" height="8" as="geometry"/></mxCell><mxCell id="23" value="+ getRelative(int x, int y, int z): IBlock" style="text;strokeColor=none;fillColor=none;align=left;verticalAlign=top;spacingLeft=4;spacingRight=4;overflow=hidden;rotatable=0;points=[[0,0.5],[1,0.5]];portConstraint=eastwest;glass=0;" parent="20" vertex="1"><mxGeometry y="78" width="250" height="50" as="geometry"/></mxCell><mxCell id="24" value="" style="endArrow=block;dashed=1;endFill=0;endSize=12;html=1;rounded=0;entryX=0.5;entryY=0;entryDx=0;entryDy=0;exitX=0.5;exitY=1;exitDx=0;exitDy=0;" parent="WIyWlLk6GJQsqaUBKTNV-1" source="Hpd59Qbbizcu43VCn_N1-31" target="20" edge="1"><mxGeometry width="160" relative="1" as="geometry"><mxPoint x="556.5384615384614" y="807" as="sourcePoint"/><mxPoint x="475" y="860" as="targetPoint"/></mxGeometry></mxCell><mxCell id="25" value="BukkitMaterial" style="swimlane;fontStyle=1;align=center;verticalAlign=top;childLayout=stackLayout;horizontal=1;startSize=26;horizontalStack=0;resizeParent=1;resizeParentMax=0;resizeLast=0;collapsible=1;marginBottom=0;" parent="WIyWlLk6GJQsqaUBKTNV-1" vertex="1"><mxGeometry x="770" y="260" width="230" height="60" as="geometry"><mxRectangle x="280" y="320" width="120" height="30" as="alternateBounds"/></mxGeometry></mxCell><mxCell id="26" value="+ blockData: org.bukkit.BlockData" style="text;align=left;verticalAlign=top;spacingLeft=4;spacingRight=4;overflow=hidden;rotatable=0;points=[[0,0.5],[1,0.5]];portConstraint=eastwest;" parent="25" vertex="1"><mxGeometry y="26" width="230" height="26" as="geometry"/></mxCell><mxCell id="27" value="" style="line;strokeWidth=1;align=left;verticalAlign=middle;spacingTop=-1;spacingLeft=3;spacingRight=3;rotatable=0;labelPosition=right;points=[];portConstraint=eastwest;" parent="25" vertex="1"><mxGeometry y="52" width="230" height="8" as="geometry"/></mxCell><mxCell id="29" value="" style="endArrow=block;dashed=1;endFill=0;endSize=12;html=1;rounded=0;exitX=1;exitY=0.5;exitDx=0;exitDy=0;entryX=0.5;entryY=0;entryDx=0;entryDy=0;" parent="WIyWlLk6GJQsqaUBKTNV-1" source="35" target="25" edge="1"><mxGeometry width="160" relative="1" as="geometry"><mxPoint x="455" y="20" as="sourcePoint"/><mxPoint x="789.375" y="60" as="targetPoint"/></mxGeometry></mxCell><mxCell id="30" value="ForgeMaterial" style="swimlane;fontStyle=1;align=center;verticalAlign=top;childLayout=stackLayout;horizontal=1;startSize=26;horizontalStack=0;resizeParent=1;resizeParentMax=0;resizeLast=0;collapsible=1;marginBottom=0;" parent="WIyWlLk6GJQsqaUBKTNV-1" vertex="1"><mxGeometry x="220" y="230" width="290" height="60" as="geometry"/></mxCell><mxCell id="31" value="+ blockData: ?" style="text;align=left;verticalAlign=top;spacingLeft=4;spacingRight=4;overflow=hidden;rotatable=0;points=[[0,0.5],[1,0.5]];portConstraint=eastwest;" parent="30" vertex="1"><mxGeometry y="26" width="290" height="26" as="geometry"/></mxCell><mxCell id="32" value="" style="line;strokeWidth=1;align=left;verticalAlign=middle;spacingTop=-1;spacingLeft=3;spacingRight=3;rotatable=0;labelPosition=right;points=[];portConstraint=eastwest;" parent="30" vertex="1"><mxGeometry y="52" width="290" height="8" as="geometry"/></mxCell><mxCell id="34" value="" style="endArrow=block;dashed=1;endFill=0;endSize=12;html=1;rounded=0;exitX=-0.011;exitY=0.464;exitDx=0;exitDy=0;exitPerimeter=0;entryX=0.5;entryY=0;entryDx=0;entryDy=0;" parent="WIyWlLk6GJQsqaUBKTNV-1" source="35" target="30" edge="1"><mxGeometry width="160" relative="1" as="geometry"><mxPoint x="505" y="10" as="sourcePoint"/><mxPoint x="485.5382034073309" y="60" as="targetPoint"/></mxGeometry></mxCell><mxCell id="35" value="&lt;p style=&quot;margin: 0px ; margin-top: 4px ; text-align: center&quot;&gt;&lt;i&gt;&amp;lt;&amp;lt;Interface&amp;gt;&amp;gt;&lt;/i&gt;&lt;br&gt;&lt;b&gt;IBlockData&lt;/b&gt;&lt;/p&gt;&lt;br&gt;&lt;hr size=&quot;1&quot;&gt;&lt;p style=&quot;margin: 0px ; margin-left: 4px&quot;&gt;+ getMaterial(): IMaterial&lt;/p&gt;&lt;p style=&quot;margin: 0px ; margin-left: 4px&quot;&gt;+ matches(IblockData blockData): boolean&lt;/p&gt;&lt;p style=&quot;margin: 0px ; margin-left: 4px&quot;&gt;+ getAsString(): String&lt;/p&gt;&lt;p style=&quot;margin: 0px ; margin-left: 4px&quot;&gt;+ merge(IBlockData blockdata): IBlockData&lt;/p&gt;&lt;p style=&quot;margin: 0px ; margin-left: 4px&quot;&gt;&lt;br&gt;&lt;/p&gt;" style="verticalAlign=top;align=left;overflow=fill;fontSize=12;fontFamily=Helvetica;html=1;glass=0;" parent="WIyWlLk6GJQsqaUBKTNV-1" vertex="1"><mxGeometry x="520" y="120" width="250" height="140" as="geometry"/></mxCell><mxCell id="36" value="BukkitMaterial" style="swimlane;fontStyle=1;align=center;verticalAlign=top;childLayout=stackLayout;horizontal=1;startSize=26;horizontalStack=0;resizeParent=1;resizeParentMax=0;resizeLast=0;collapsible=1;marginBottom=0;" parent="WIyWlLk6GJQsqaUBKTNV-1" vertex="1"><mxGeometry x="710" y="-310" width="230" height="100" as="geometry"><mxRectangle x="280" y="320" width="120" height="30" as="alternateBounds"/></mxGeometry></mxCell><mxCell id="37" value="+ material: org.bukkit.Material" style="text;align=left;verticalAlign=top;spacingLeft=4;spacingRight=4;overflow=hidden;rotatable=0;points=[[0,0.5],[1,0.5]];portConstraint=eastwest;" parent="36" vertex="1"><mxGeometry y="26" width="230" height="26" as="geometry"/></mxCell><mxCell id="38" value="" style="line;strokeWidth=1;align=left;verticalAlign=middle;spacingTop=-1;spacingLeft=3;spacingRight=3;rotatable=0;labelPosition=right;points=[];portConstraint=eastwest;" parent="36" vertex="1"><mxGeometry y="52" width="230" height="8" as="geometry"/></mxCell><mxCell id="39" value="+ isSolid(): boolean&#10;+ isLiquid(): boolean&#10;" style="text;align=left;verticalAlign=top;spacingLeft=4;spacingRight=4;overflow=hidden;rotatable=0;points=[[0,0.5],[1,0.5]];portConstraint=eastwest;" parent="36" vertex="1"><mxGeometry y="60" width="230" height="40" as="geometry"/></mxCell><mxCell id="40" value="ForgeMaterial" style="swimlane;fontStyle=1;align=center;verticalAlign=top;childLayout=stackLayout;horizontal=1;startSize=26;horizontalStack=0;resizeParent=1;resizeParentMax=0;resizeLast=0;collapsible=1;marginBottom=0;" parent="WIyWlLk6GJQsqaUBKTNV-1" vertex="1"><mxGeometry x="360" y="-310" width="290" height="100" as="geometry"/></mxCell><mxCell id="41" value="+ material: net.minecraft.world.level.material.Material" style="text;align=left;verticalAlign=top;spacingLeft=4;spacingRight=4;overflow=hidden;rotatable=0;points=[[0,0.5],[1,0.5]];portConstraint=eastwest;" parent="40" vertex="1"><mxGeometry y="26" width="290" height="26" as="geometry"/></mxCell><mxCell id="42" value="" style="line;strokeWidth=1;align=left;verticalAlign=middle;spacingTop=-1;spacingLeft=3;spacingRight=3;rotatable=0;labelPosition=right;points=[];portConstraint=eastwest;" parent="40" vertex="1"><mxGeometry y="52" width="290" height="8" as="geometry"/></mxCell><mxCell id="43" value="+ isSolid(): boolean&#10;+ isLiquid(): boolean&#10;" style="text;align=left;verticalAlign=top;spacingLeft=4;spacingRight=4;overflow=hidden;rotatable=0;points=[[0,0.5],[1,0.5]];portConstraint=eastwest;" parent="40" vertex="1"><mxGeometry y="60" width="290" height="40" as="geometry"/></mxCell><mxCell id="44" value="BukkitMaterial" style="swimlane;fontStyle=1;align=center;verticalAlign=top;childLayout=stackLayout;horizontal=1;startSize=26;horizontalStack=0;resizeParent=1;resizeParentMax=0;resizeLast=0;collapsible=1;marginBottom=0;" parent="WIyWlLk6GJQsqaUBKTNV-1" vertex="1"><mxGeometry x="710" y="-310" width="230" height="100" as="geometry"><mxRectangle x="280" y="320" width="120" height="30" as="alternateBounds"/></mxGeometry></mxCell><mxCell id="45" value="+ material: org.bukkit.Material" style="text;align=left;verticalAlign=top;spacingLeft=4;spacingRight=4;overflow=hidden;rotatable=0;points=[[0,0.5],[1,0.5]];portConstraint=eastwest;" parent="44" vertex="1"><mxGeometry y="26" width="230" height="26" as="geometry"/></mxCell><mxCell id="46" value="" style="line;strokeWidth=1;align=left;verticalAlign=middle;spacingTop=-1;spacingLeft=3;spacingRight=3;rotatable=0;labelPosition=right;points=[];portConstraint=eastwest;" parent="44" vertex="1"><mxGeometry y="52" width="230" height="8" as="geometry"/></mxCell><mxCell id="47" value="+ isSolid(): boolean&#10;+ isLiquid(): boolean&#10;" style="text;align=left;verticalAlign=top;spacingLeft=4;spacingRight=4;overflow=hidden;rotatable=0;points=[[0,0.5],[1,0.5]];portConstraint=eastwest;" parent="44" vertex="1"><mxGeometry y="60" width="230" height="40" as="geometry"/></mxCell><mxCell id="48" value="ForgeMaterial" style="swimlane;fontStyle=1;align=center;verticalAlign=top;childLayout=stackLayout;horizontal=1;startSize=26;horizontalStack=0;resizeParent=1;resizeParentMax=0;resizeLast=0;collapsible=1;marginBottom=0;" parent="WIyWlLk6GJQsqaUBKTNV-1" vertex="1"><mxGeometry x="360" y="-310" width="290" height="100" as="geometry"/></mxCell><mxCell id="49" value="+ material: net.minecraft.world.level.material.Material" style="text;align=left;verticalAlign=top;spacingLeft=4;spacingRight=4;overflow=hidden;rotatable=0;points=[[0,0.5],[1,0.5]];portConstraint=eastwest;" parent="48" vertex="1"><mxGeometry y="26" width="290" height="26" as="geometry"/></mxCell><mxCell id="50" value="" style="line;strokeWidth=1;align=left;verticalAlign=middle;spacingTop=-1;spacingLeft=3;spacingRight=3;rotatable=0;labelPosition=right;points=[];portConstraint=eastwest;" parent="48" vertex="1"><mxGeometry y="52" width="290" height="8" as="geometry"/></mxCell><mxCell id="51" value="+ isSolid(): boolean&#10;+ isLiquid(): boolean&#10;" style="text;align=left;verticalAlign=top;spacingLeft=4;spacingRight=4;overflow=hidden;rotatable=0;points=[[0,0.5],[1,0.5]];portConstraint=eastwest;" parent="48" vertex="1"><mxGeometry y="60" width="290" height="40" as="geometry"/></mxCell><mxCell id="52" value="BukkitMaterial" style="swimlane;fontStyle=1;align=center;verticalAlign=top;childLayout=stackLayout;horizontal=1;startSize=26;horizontalStack=0;resizeParent=1;resizeParentMax=0;resizeLast=0;collapsible=1;marginBottom=0;" parent="WIyWlLk6GJQsqaUBKTNV-1" vertex="1"><mxGeometry x="710" y="-310" width="230" height="100" as="geometry"><mxRectangle x="280" y="320" width="120" height="30" as="alternateBounds"/></mxGeometry></mxCell><mxCell id="53" value="+ material: org.bukkit.Material" style="text;align=left;verticalAlign=top;spacingLeft=4;spacingRight=4;overflow=hidden;rotatable=0;points=[[0,0.5],[1,0.5]];portConstraint=eastwest;" parent="52" vertex="1"><mxGeometry y="26" width="230" height="26" as="geometry"/></mxCell><mxCell id="54" value="" style="line;strokeWidth=1;align=left;verticalAlign=middle;spacingTop=-1;spacingLeft=3;spacingRight=3;rotatable=0;labelPosition=right;points=[];portConstraint=eastwest;" parent="52" vertex="1"><mxGeometry y="52" width="230" height="8" as="geometry"/></mxCell><mxCell id="55" value="+ isSolid(): boolean&#10;+ isLiquid(): boolean&#10;" style="text;align=left;verticalAlign=top;spacingLeft=4;spacingRight=4;overflow=hidden;rotatable=0;points=[[0,0.5],[1,0.5]];portConstraint=eastwest;" parent="52" vertex="1"><mxGeometry y="60" width="230" height="40" as="geometry"/></mxCell><mxCell id="56" value="ForgeMaterial" style="swimlane;fontStyle=1;align=center;verticalAlign=top;childLayout=stackLayout;horizontal=1;startSize=26;horizontalStack=0;resizeParent=1;resizeParentMax=0;resizeLast=0;collapsible=1;marginBottom=0;" parent="WIyWlLk6GJQsqaUBKTNV-1" vertex="1"><mxGeometry x="360" y="-310" width="290" height="100" as="geometry"/></mxCell><mxCell id="57" value="+ material: net.minecraft.world.level.material.Material" style="text;align=left;verticalAlign=top;spacingLeft=4;spacingRight=4;overflow=hidden;rotatable=0;points=[[0,0.5],[1,0.5]];portConstraint=eastwest;" parent="56" vertex="1"><mxGeometry y="26" width="290" height="26" as="geometry"/></mxCell><mxCell id="58" value="" style="line;strokeWidth=1;align=left;verticalAlign=middle;spacingTop=-1;spacingLeft=3;spacingRight=3;rotatable=0;labelPosition=right;points=[];portConstraint=eastwest;" parent="56" vertex="1"><mxGeometry y="52" width="290" height="8" as="geometry"/></mxCell><mxCell id="59" value="+ isSolid(): boolean&#10;+ isLiquid(): boolean&#10;" style="text;align=left;verticalAlign=top;spacingLeft=4;spacingRight=4;overflow=hidden;rotatable=0;points=[[0,0.5],[1,0.5]];portConstraint=eastwest;" parent="56" vertex="1"><mxGeometry y="60" width="290" height="40" as="geometry"/></mxCell><mxCell id="60" value="BukkitMaterial" style="swimlane;fontStyle=1;align=center;verticalAlign=top;childLayout=stackLayout;horizontal=1;startSize=26;horizontalStack=0;resizeParent=1;resizeParentMax=0;resizeLast=0;collapsible=1;marginBottom=0;" parent="WIyWlLk6GJQsqaUBKTNV-1" vertex="1"><mxGeometry x="710" y="-310" width="230" height="100" as="geometry"><mxRectangle x="280" y="320" width="120" height="30" as="alternateBounds"/></mxGeometry></mxCell><mxCell id="61" value="+ material: org.bukkit.Material" style="text;align=left;verticalAlign=top;spacingLeft=4;spacingRight=4;overflow=hidden;rotatable=0;points=[[0,0.5],[1,0.5]];portConstraint=eastwest;" parent="60" vertex="1"><mxGeometry y="26" width="230" height="26" as="geometry"/></mxCell><mxCell id="62" value="" style="line;strokeWidth=1;align=left;verticalAlign=middle;spacingTop=-1;spacingLeft=3;spacingRight=3;rotatable=0;labelPosition=right;points=[];portConstraint=eastwest;" parent="60" vertex="1"><mxGeometry y="52" width="230" height="8" as="geometry"/></mxCell><mxCell id="63" value="+ isSolid(): boolean&#10;+ isLiquid(): boolean&#10;" style="text;align=left;verticalAlign=top;spacingLeft=4;spacingRight=4;overflow=hidden;rotatable=0;points=[[0,0.5],[1,0.5]];portConstraint=eastwest;" parent="60" vertex="1"><mxGeometry y="60" width="230" height="40" as="geometry"/></mxCell><mxCell id="64" value="ForgeMaterial" style="swimlane;fontStyle=1;align=center;verticalAlign=top;childLayout=stackLayout;horizontal=1;startSize=26;horizontalStack=0;resizeParent=1;resizeParentMax=0;resizeLast=0;collapsible=1;marginBottom=0;" parent="WIyWlLk6GJQsqaUBKTNV-1" vertex="1"><mxGeometry x="360" y="-310" width="290" height="100" as="geometry"/></mxCell><mxCell id="65" value="+ material: net.minecraft.world.level.material.Material" style="text;align=left;verticalAlign=top;spacingLeft=4;spacingRight=4;overflow=hidden;rotatable=0;points=[[0,0.5],[1,0.5]];portConstraint=eastwest;" parent="64" vertex="1"><mxGeometry y="26" width="290" height="26" as="geometry"/></mxCell><mxCell id="66" value="" style="line;strokeWidth=1;align=left;verticalAlign=middle;spacingTop=-1;spacingLeft=3;spacingRight=3;rotatable=0;labelPosition=right;points=[];portConstraint=eastwest;" parent="64" vertex="1"><mxGeometry y="52" width="290" height="8" as="geometry"/></mxCell><mxCell id="67" value="+ isSolid(): boolean&#10;+ isLiquid(): boolean&#10;" style="text;align=left;verticalAlign=top;spacingLeft=4;spacingRight=4;overflow=hidden;rotatable=0;points=[[0,0.5],[1,0.5]];portConstraint=eastwest;" parent="64" vertex="1"><mxGeometry y="60" width="290" height="40" as="geometry"/></mxCell><mxCell id="68" style="edgeStyle=orthogonalEdgeStyle;rounded=0;orthogonalLoop=1;jettySize=auto;html=1;endArrow=block;endFill=1;" parent="WIyWlLk6GJQsqaUBKTNV-1" source="35" target="Hpd59Qbbizcu43VCn_N1-11" edge="1"><mxGeometry relative="1" as="geometry"><mxPoint x="680" y="70" as="sourcePoint"/><mxPoint x="690" y="30" as="targetPoint"/></mxGeometry></mxCell><mxCell id="69" value="&lt;p style=&quot;margin: 0px ; margin-top: 4px ; text-align: center&quot;&gt;&lt;i&gt;&amp;lt;&amp;lt;Interface&amp;gt;&amp;gt;&lt;/i&gt;&lt;br&gt;&lt;b&gt;IEntity&lt;/b&gt;&lt;/p&gt;&lt;hr size=&quot;1&quot;&gt;&lt;p style=&quot;margin: 0px ; margin-left: 4px&quot;&gt;+ getType(): IEntityType&lt;/p&gt;&lt;p style=&quot;margin: 0px ; margin-left: 4px&quot;&gt;+ remove(): void&lt;/p&gt;&lt;p style=&quot;margin: 0px ; margin-left: 4px&quot;&gt;+ getEntityId(): int&lt;/p&gt;&lt;p style=&quot;margin: 0px ; margin-left: 4px&quot;&gt;+ getLocation(): ILocation&lt;/p&gt;&lt;p style=&quot;margin: 0px ; margin-left: 4px&quot;&gt;+ getWorld(): IWorld&lt;/p&gt;&lt;p style=&quot;margin: 0px ; margin-left: 4px&quot;&gt;+ getTargetBlock(): IVector&lt;/p&gt;&lt;p style=&quot;margin: 0px 0px 0px 4px&quot;&gt;+ addPassenger(IEntity entity): void&lt;/p&gt;&lt;p style=&quot;margin: 0px 0px 0px 4px&quot;&gt;+ getEyeLocation(): ILocation&lt;/p&gt;&lt;p style=&quot;margin: 0px 0px 0px 4px&quot;&gt;+ eject(): void&lt;/p&gt;&lt;div&gt;&lt;br&gt;&lt;/div&gt;&lt;p style=&quot;margin: 0px 0px 0px 4px&quot;&gt;&lt;br&gt;&lt;/p&gt;" style="verticalAlign=top;align=left;overflow=fill;fontSize=12;fontFamily=Helvetica;html=1;glass=0;" parent="WIyWlLk6GJQsqaUBKTNV-1" vertex="1"><mxGeometry x="-875" y="-362" width="480" height="212" as="geometry"/></mxCell><mxCell id="70" value="ForgeEntity" style="swimlane;fontStyle=1;align=center;verticalAlign=top;childLayout=stackLayout;horizontal=1;startSize=26;horizontalStack=0;resizeParent=1;resizeParentMax=0;resizeLast=0;collapsible=1;marginBottom=0;glass=0;" parent="WIyWlLk6GJQsqaUBKTNV-1" vertex="1"><mxGeometry x="-950" y="-480" width="270" height="60" as="geometry"/></mxCell><mxCell id="71" value="- entity: net.minecraft.?" style="text;strokeColor=none;fillColor=none;align=left;verticalAlign=top;spacingLeft=4;spacingRight=4;overflow=hidden;rotatable=0;points=[[0,0.5],[1,0.5]];portConstraint=eastwest;glass=0;" parent="70" vertex="1"><mxGeometry y="26" width="270" height="26" as="geometry"/></mxCell><mxCell id="72" value="" style="line;strokeWidth=1;fillColor=none;align=left;verticalAlign=middle;spacingTop=-1;spacingLeft=3;spacingRight=3;rotatable=0;labelPosition=right;points=[];portConstraint=eastwest;glass=0;" parent="70" vertex="1"><mxGeometry y="52" width="270" height="8" as="geometry"/></mxCell><mxCell id="73" value="BukkitEntity" style="swimlane;fontStyle=1;align=center;verticalAlign=top;childLayout=stackLayout;horizontal=1;startSize=26;horizontalStack=0;resizeParent=1;resizeParentMax=0;resizeLast=0;collapsible=1;marginBottom=0;glass=0;" parent="WIyWlLk6GJQsqaUBKTNV-1" vertex="1"><mxGeometry x="-600" y="-450" width="250" height="60" as="geometry"/></mxCell><mxCell id="74" value="- entity: org.bukkit.entity.Entity" style="text;strokeColor=none;fillColor=none;align=left;verticalAlign=top;spacingLeft=4;spacingRight=4;overflow=hidden;rotatable=0;points=[[0,0.5],[1,0.5]];portConstraint=eastwest;glass=0;" parent="73" vertex="1"><mxGeometry y="26" width="250" height="26" as="geometry"/></mxCell><mxCell id="75" value="" style="line;strokeWidth=1;fillColor=none;align=left;verticalAlign=middle;spacingTop=-1;spacingLeft=3;spacingRight=3;rotatable=0;labelPosition=right;points=[];portConstraint=eastwest;glass=0;" parent="73" vertex="1"><mxGeometry y="52" width="250" height="8" as="geometry"/></mxCell><mxCell id="76" value="" style="endArrow=block;dashed=1;endFill=0;endSize=12;html=1;rounded=0;entryX=0.5;entryY=1;entryDx=0;entryDy=0;exitX=0.75;exitY=0;exitDx=0;exitDy=0;" parent="WIyWlLk6GJQsqaUBKTNV-1" source="69" target="73" edge="1"><mxGeometry width="160" relative="1" as="geometry"><mxPoint x="-600" y="-567" as="sourcePoint"/><mxPoint x="-510" y="-537" as="targetPoint"/></mxGeometry></mxCell><mxCell id="77" value="" style="endArrow=block;dashed=1;endFill=0;endSize=12;html=1;rounded=0;entryX=0.5;entryY=1;entryDx=0;entryDy=0;exitX=0.25;exitY=0;exitDx=0;exitDy=0;" parent="WIyWlLk6GJQsqaUBKTNV-1" source="69" target="70" edge="1"><mxGeometry width="160" relative="1" as="geometry"><mxPoint x="-692.5" y="-569.9999999999995" as="sourcePoint"/><mxPoint x="-455" y="-487" as="targetPoint"/></mxGeometry></mxCell><mxCell id="78" value="&lt;p style=&quot;margin: 0px ; margin-top: 4px ; text-align: center&quot;&gt;&lt;i&gt;&amp;lt;&amp;lt;Interface&amp;gt;&amp;gt;&lt;/i&gt;&lt;br&gt;&lt;b&gt;IBlockState&lt;/b&gt;&lt;/p&gt;&lt;hr size=&quot;1&quot;&gt;&lt;p style=&quot;margin: 0px ; margin-left: 4px&quot;&gt;+ getBlock(): IBlock&lt;/p&gt;&lt;p style=&quot;margin: 0px ; margin-left: 4px&quot;&gt;+ getWorld(): IWorld&lt;/p&gt;&lt;p style=&quot;margin: 0px ; margin-left: 4px&quot;&gt;+ getX(): int&lt;/p&gt;&lt;p style=&quot;margin: 0px ; margin-left: 4px&quot;&gt;+ getY(): int&lt;/p&gt;&lt;p style=&quot;margin: 0px ; margin-left: 4px&quot;&gt;+ getZ(): int&lt;/p&gt;&lt;p style=&quot;margin: 0px ; margin-left: 4px&quot;&gt;+ getMaterial(): IMaterial&lt;/p&gt;&lt;p style=&quot;margin: 0px ; margin-left: 4px&quot;&gt;+ getBlockData(): IBlockData&lt;/p&gt;&lt;p style=&quot;margin: 0px ; margin-left: 4px&quot;&gt;&lt;br&gt;&lt;/p&gt;" style="verticalAlign=top;align=left;overflow=fill;fontSize=12;fontFamily=Helvetica;html=1;glass=0;" parent="WIyWlLk6GJQsqaUBKTNV-1" vertex="1"><mxGeometry x="1220" y="-122" width="280" height="150" as="geometry"/></mxCell><mxCell id="79" value="ForgeBlockState" style="swimlane;fontStyle=1;align=center;verticalAlign=top;childLayout=stackLayout;horizontal=1;startSize=26;horizontalStack=0;resizeParent=1;resizeParentMax=0;resizeLast=0;collapsible=1;marginBottom=0;glass=0;" parent="WIyWlLk6GJQsqaUBKTNV-1" vertex="1"><mxGeometry x="1050" y="-290" width="270" height="60" as="geometry"/></mxCell><mxCell id="80" value="- blockState" style="text;strokeColor=none;fillColor=none;align=left;verticalAlign=top;spacingLeft=4;spacingRight=4;overflow=hidden;rotatable=0;points=[[0,0.5],[1,0.5]];portConstraint=eastwest;glass=0;" parent="79" vertex="1"><mxGeometry y="26" width="270" height="26" as="geometry"/></mxCell><mxCell id="81" value="" style="line;strokeWidth=1;fillColor=none;align=left;verticalAlign=middle;spacingTop=-1;spacingLeft=3;spacingRight=3;rotatable=0;labelPosition=right;points=[];portConstraint=eastwest;glass=0;" parent="79" vertex="1"><mxGeometry y="52" width="270" height="8" as="geometry"/></mxCell><mxCell id="82" value="BukkitBlockState" style="swimlane;fontStyle=1;align=center;verticalAlign=top;childLayout=stackLayout;horizontal=1;startSize=26;horizontalStack=0;resizeParent=1;resizeParentMax=0;resizeLast=0;collapsible=1;marginBottom=0;glass=0;" parent="WIyWlLk6GJQsqaUBKTNV-1" vertex="1"><mxGeometry x="1340" y="-289" width="250" height="60" as="geometry"/></mxCell><mxCell id="83" value="- blockState: org.bukkit.BlockState" style="text;strokeColor=none;fillColor=none;align=left;verticalAlign=top;spacingLeft=4;spacingRight=4;overflow=hidden;rotatable=0;points=[[0,0.5],[1,0.5]];portConstraint=eastwest;glass=0;" parent="82" vertex="1"><mxGeometry y="26" width="250" height="26" as="geometry"/></mxCell><mxCell id="84" value="" style="line;strokeWidth=1;fillColor=none;align=left;verticalAlign=middle;spacingTop=-1;spacingLeft=3;spacingRight=3;rotatable=0;labelPosition=right;points=[];portConstraint=eastwest;glass=0;" parent="82" vertex="1"><mxGeometry y="52" width="250" height="8" as="geometry"/></mxCell><mxCell id="85" value="" style="endArrow=block;dashed=1;endFill=0;endSize=12;html=1;rounded=0;entryX=0.5;entryY=1;entryDx=0;entryDy=0;exitX=0.75;exitY=0;exitDx=0;exitDy=0;" parent="WIyWlLk6GJQsqaUBKTNV-1" source="78" target="82" edge="1"><mxGeometry width="160" relative="1" as="geometry"><mxPoint x="1370" y="-347" as="sourcePoint"/><mxPoint x="1460" y="-317" as="targetPoint"/></mxGeometry></mxCell><mxCell id="86" value="" style="endArrow=block;dashed=1;endFill=0;endSize=12;html=1;rounded=0;entryX=0.5;entryY=1;entryDx=0;entryDy=0;exitX=0.25;exitY=0;exitDx=0;exitDy=0;" parent="WIyWlLk6GJQsqaUBKTNV-1" source="78" target="79" edge="1"><mxGeometry width="160" relative="1" as="geometry"><mxPoint x="1277.5" y="-349.99999999999955" as="sourcePoint"/><mxPoint x="1515" y="-267" as="targetPoint"/></mxGeometry></mxCell><mxCell id="87" value="&lt;p style=&quot;margin: 0px ; margin-top: 4px ; text-align: center&quot;&gt;&lt;i&gt;&amp;lt;&amp;lt;Interface&amp;gt;&amp;gt;&lt;/i&gt;&lt;br&gt;&lt;b&gt;IEntityType&lt;/b&gt;&lt;/p&gt;&lt;hr size=&quot;1&quot;&gt;&lt;p style=&quot;margin: 0px ; margin-left: 4px&quot;&gt;+ getName(): String&lt;/p&gt;&lt;p style=&quot;margin: 0px ; margin-left: 4px&quot;&gt;&lt;br&gt;&lt;/p&gt;" style="verticalAlign=top;align=left;overflow=fill;fontSize=12;fontFamily=Helvetica;html=1;glass=0;" parent="WIyWlLk6GJQsqaUBKTNV-1" vertex="1"><mxGeometry x="-1390" y="-341" width="280" height="150" as="geometry"/></mxCell><mxCell id="88" value="ForgeEntity" style="swimlane;fontStyle=1;align=center;verticalAlign=top;childLayout=stackLayout;horizontal=1;startSize=26;horizontalStack=0;resizeParent=1;resizeParentMax=0;resizeLast=0;collapsible=1;marginBottom=0;glass=0;" parent="WIyWlLk6GJQsqaUBKTNV-1" vertex="1"><mxGeometry x="-1560" y="-509" width="270" height="60" as="geometry"/></mxCell><mxCell id="89" value="- entityType: net.minecraft.?" style="text;strokeColor=none;fillColor=none;align=left;verticalAlign=top;spacingLeft=4;spacingRight=4;overflow=hidden;rotatable=0;points=[[0,0.5],[1,0.5]];portConstraint=eastwest;glass=0;" parent="88" vertex="1"><mxGeometry y="26" width="270" height="26" as="geometry"/></mxCell><mxCell id="90" value="" style="line;strokeWidth=1;fillColor=none;align=left;verticalAlign=middle;spacingTop=-1;spacingLeft=3;spacingRight=3;rotatable=0;labelPosition=right;points=[];portConstraint=eastwest;glass=0;" parent="88" vertex="1"><mxGeometry y="52" width="270" height="8" as="geometry"/></mxCell><mxCell id="91" value="BukkitEntityType" style="swimlane;fontStyle=1;align=center;verticalAlign=top;childLayout=stackLayout;horizontal=1;startSize=26;horizontalStack=0;resizeParent=1;resizeParentMax=0;resizeLast=0;collapsible=1;marginBottom=0;glass=0;" parent="WIyWlLk6GJQsqaUBKTNV-1" vertex="1"><mxGeometry x="-1270" y="-508" width="250" height="60" as="geometry"/></mxCell><mxCell id="92" value="- entityType: org.bukkit.entity.EntityType" style="text;strokeColor=none;fillColor=none;align=left;verticalAlign=top;spacingLeft=4;spacingRight=4;overflow=hidden;rotatable=0;points=[[0,0.5],[1,0.5]];portConstraint=eastwest;glass=0;" parent="91" vertex="1"><mxGeometry y="26" width="250" height="26" as="geometry"/></mxCell><mxCell id="93" value="" style="line;strokeWidth=1;fillColor=none;align=left;verticalAlign=middle;spacingTop=-1;spacingLeft=3;spacingRight=3;rotatable=0;labelPosition=right;points=[];portConstraint=eastwest;glass=0;" parent="91" vertex="1"><mxGeometry y="52" width="250" height="8" as="geometry"/></mxCell><mxCell id="94" value="" style="endArrow=block;dashed=1;endFill=0;endSize=12;html=1;rounded=0;entryX=0.5;entryY=1;entryDx=0;entryDy=0;exitX=0.75;exitY=0;exitDx=0;exitDy=0;" parent="WIyWlLk6GJQsqaUBKTNV-1" source="87" target="91" edge="1"><mxGeometry width="160" relative="1" as="geometry"><mxPoint x="-1240" y="-566" as="sourcePoint"/><mxPoint x="-1150" y="-536" as="targetPoint"/></mxGeometry></mxCell><mxCell id="95" value="" style="endArrow=block;dashed=1;endFill=0;endSize=12;html=1;rounded=0;entryX=0.5;entryY=1;entryDx=0;entryDy=0;exitX=0.25;exitY=0;exitDx=0;exitDy=0;" parent="WIyWlLk6GJQsqaUBKTNV-1" source="87" target="88" edge="1"><mxGeometry width="160" relative="1" as="geometry"><mxPoint x="-1332.5" y="-568.9999999999995" as="sourcePoint"/><mxPoint x="-1095" y="-486" as="targetPoint"/></mxGeometry></mxCell><mxCell id="96" value="&lt;p style=&quot;margin: 0px ; margin-top: 4px ; text-align: center&quot;&gt;&lt;i&gt;&amp;lt;&amp;lt;Interface&amp;gt;&amp;gt;&lt;/i&gt;&lt;br&gt;&lt;b&gt;IVector&lt;/b&gt;&lt;/p&gt;&lt;hr size=&quot;1&quot;&gt;&lt;p style=&quot;margin: 0px ; margin-left: 4px&quot;&gt;&lt;span&gt;+ getLocation(IWorld world): ILocation&lt;/span&gt;&lt;br&gt;&lt;/p&gt;&lt;p style=&quot;margin: 0px ; margin-left: 4px&quot;&gt;&lt;span&gt;+ getMidpoint(IVector 2): IVector&lt;/span&gt;&lt;/p&gt;&lt;p style=&quot;margin: 0px 0px 0px 4px&quot;&gt;+ getX(): int&lt;br&gt;&lt;/p&gt;&lt;p style=&quot;margin: 0px 0px 0px 4px&quot;&gt;+ getY(): int&lt;br&gt;&lt;/p&gt;&lt;p style=&quot;margin: 0px 0px 0px 4px&quot;&gt;+ getZ(): int&lt;/p&gt;&lt;p style=&quot;margin: 0px 0px 0px 4px&quot;&gt;+ getBlockX(): int&lt;br&gt;&lt;/p&gt;&lt;p style=&quot;margin: 0px 0px 0px 4px&quot;&gt;+ getBlockY(): int&lt;br&gt;&lt;/p&gt;&lt;p style=&quot;margin: 0px 0px 0px 4px&quot;&gt;+ getBlockZ(): int&lt;/p&gt;&lt;p style=&quot;margin: 0px 0px 0px 4px&quot;&gt;+ setX(): int&lt;br&gt;&lt;/p&gt;&lt;p style=&quot;margin: 0px 0px 0px 4px&quot;&gt;+ setY(): int&lt;br&gt;&lt;/p&gt;&lt;p style=&quot;margin: 0px 0px 0px 4px&quot;&gt;+ setZ(): int&lt;/p&gt;&lt;p style=&quot;margin: 0px 0px 0px 4px&quot;&gt;+ add(IVector vector): IVector&lt;/p&gt;&lt;p style=&quot;margin: 0px 0px 0px 4px&quot;&gt;+ subtract(IVector vector): IVector&lt;/p&gt;&lt;p style=&quot;margin: 0px 0px 0px 4px&quot;&gt;+ length(): Double&lt;/p&gt;&lt;p style=&quot;margin: 0px 0px 0px 4px&quot;&gt;+ angle(IVector vector): Double&amp;nbsp;&lt;/p&gt;&lt;p style=&quot;margin: 0px 0px 0px 4px&quot;&gt;+ crossProduct(IVector vector): IVector&lt;/p&gt;&lt;p style=&quot;margin: 0px 0px 0px 4px&quot;&gt;+ copy(IVector vector): IVector&lt;/p&gt;&lt;p style=&quot;margin: 0px 0px 0px 4px&quot;&gt;+ multiply(double times): IVector&lt;/p&gt;&lt;p style=&quot;margin: 0px 0px 0px 4px&quot;&gt;+ normalize(): IVector&lt;/p&gt;&lt;p style=&quot;margin: 0px 0px 0px 4px&quot;&gt;+ distanceSquared(IVector vector): double&lt;/p&gt;&lt;p style=&quot;margin: 0px 0px 0px 4px&quot;&gt;+ isInSphere(IVector target, int range): boolean&lt;/p&gt;&lt;p style=&quot;margin: 0px 0px 0px 4px&quot;&gt;+ lengthSquared(): double&lt;/p&gt;" style="verticalAlign=top;align=left;overflow=fill;fontSize=12;fontFamily=Helvetica;html=1;glass=0;" parent="WIyWlLk6GJQsqaUBKTNV-1" vertex="1"><mxGeometry x="-170" y="-400" width="280" height="360" as="geometry"/></mxCell><mxCell id="97" value="ForgeEntity" style="swimlane;fontStyle=1;align=center;verticalAlign=top;childLayout=stackLayout;horizontal=1;startSize=26;horizontalStack=0;resizeParent=1;resizeParentMax=0;resizeLast=0;collapsible=1;marginBottom=0;glass=0;" parent="WIyWlLk6GJQsqaUBKTNV-1" vertex="1"><mxGeometry x="-330" y="-480" width="270" height="60" as="geometry"/></mxCell><mxCell id="98" value="- vector: net.minecraft.?" style="text;strokeColor=none;fillColor=none;align=left;verticalAlign=top;spacingLeft=4;spacingRight=4;overflow=hidden;rotatable=0;points=[[0,0.5],[1,0.5]];portConstraint=eastwest;glass=0;" parent="97" vertex="1"><mxGeometry y="26" width="270" height="26" as="geometry"/></mxCell><mxCell id="99" value="" style="line;strokeWidth=1;fillColor=none;align=left;verticalAlign=middle;spacingTop=-1;spacingLeft=3;spacingRight=3;rotatable=0;labelPosition=right;points=[];portConstraint=eastwest;glass=0;" parent="97" vertex="1"><mxGeometry y="52" width="270" height="8" as="geometry"/></mxCell><mxCell id="100" value="BukkitEntity" style="swimlane;fontStyle=1;align=center;verticalAlign=top;childLayout=stackLayout;horizontal=1;startSize=26;horizontalStack=0;resizeParent=1;resizeParentMax=0;resizeLast=0;collapsible=1;marginBottom=0;glass=0;" parent="WIyWlLk6GJQsqaUBKTNV-1" vertex="1"><mxGeometry x="-40" y="-479" width="250" height="60" as="geometry"/></mxCell><mxCell id="101" value="- vector: org.bukkit.util.Vector" style="text;strokeColor=none;fillColor=none;align=left;verticalAlign=top;spacingLeft=4;spacingRight=4;overflow=hidden;rotatable=0;points=[[0,0.5],[1,0.5]];portConstraint=eastwest;glass=0;" parent="100" vertex="1"><mxGeometry y="26" width="250" height="26" as="geometry"/></mxCell><mxCell id="102" value="" style="line;strokeWidth=1;fillColor=none;align=left;verticalAlign=middle;spacingTop=-1;spacingLeft=3;spacingRight=3;rotatable=0;labelPosition=right;points=[];portConstraint=eastwest;glass=0;" parent="100" vertex="1"><mxGeometry y="52" width="250" height="8" as="geometry"/></mxCell><mxCell id="103" value="" style="endArrow=block;dashed=1;endFill=0;endSize=12;html=1;rounded=0;entryX=0.5;entryY=1;entryDx=0;entryDy=0;exitX=0.75;exitY=0;exitDx=0;exitDy=0;" parent="WIyWlLk6GJQsqaUBKTNV-1" source="96" target="100" edge="1"><mxGeometry width="160" relative="1" as="geometry"><mxPoint x="-10" y="-537" as="sourcePoint"/><mxPoint x="80" y="-507" as="targetPoint"/></mxGeometry></mxCell><mxCell id="104" value="" style="endArrow=block;dashed=1;endFill=0;endSize=12;html=1;rounded=0;entryX=0.5;entryY=1;entryDx=0;entryDy=0;exitX=0.25;exitY=0;exitDx=0;exitDy=0;" parent="WIyWlLk6GJQsqaUBKTNV-1" source="96" target="97" edge="1"><mxGeometry width="160" relative="1" as="geometry"><mxPoint x="-102.5" y="-539.9999999999995" as="sourcePoint"/><mxPoint x="135" y="-457" as="targetPoint"/></mxGeometry></mxCell><mxCell id="106" value="" style="endArrow=block;dashed=1;endFill=0;endSize=12;html=1;rounded=0;entryX=0.5;entryY=1;entryDx=0;entryDy=0;exitX=0.5;exitY=0;exitDx=0;exitDy=0;" parent="WIyWlLk6GJQsqaUBKTNV-1" source="69" target="Hpd59Qbbizcu43VCn_N1-85" edge="1"><mxGeometry width="160" relative="1" as="geometry"><mxPoint x="-745" y="-352" as="sourcePoint"/><mxPoint x="-805" y="-409.9999999999998" as="targetPoint"/></mxGeometry></mxCell></root></mxGraphModel></diagram></mxfile>